<svg id="Ebene_1" data-name="Ebene 1" xmlns="http://www.w3.org/2000/svg" viewBox="0 0 495.3 495.3"><path d="M469.8,497.2a27.3,27.3,0,0,1-19.4-8.1L10.9,49.6A27.3,27.3,0,0,1,2.8,30.2a26.9,26.9,0,0,1,8.1-19.3A26.9,26.9,0,0,1,30.2,2.8a27.3,27.3,0,0,1,19.4,8.1L489.1,450.4a27.3,27.3,0,0,1,8.1,19.4,27.7,27.7,0,0,1-27.4,27.4Z" transform="translate(-2.3 -2.3)"/><path d="M30.2,3.3a26.5,26.5,0,0,1,19,7.9L488.8,450.8a26.9,26.9,0,0,1-19,45.9,26.5,26.5,0,0,1-19-7.9L11.2,49.2a26.9,26.9,0,0,1,19-45.9m0-1A27.9,27.9,0,0,0,10.5,49.9L450.1,489.5a27.9,27.9,0,0,0,39.4-39.4L49.9,10.5A27.8,27.8,0,0,0,30.2,2.3Z" transform="translate(-2.3 -2.3)"/><path d="M30.2,497.2a26.9,26.9,0,0,1-19.3-8.1,26.9,26.9,0,0,1-8.1-19.3,27.3,27.3,0,0,1,8.1-19.4L450.4,10.9a27.3,27.3,0,0,1,19.4-8.1,26.9,26.9,0,0,1,19.3,8.1,26.9,26.9,0,0,1,8.1,19.3,27.3,27.3,0,0,1-8.1,19.4L49.6,489.1A27.3,27.3,0,0,1,30.2,497.2Z" transform="translate(-2.3 -2.3)"/><path d="M469.8,3.3a26.9,26.9,0,0,1,19,45.9L49.2,488.8a26.8,26.8,0,0,1-38,0,26.9,26.9,0,0,1,0-38L450.8,11.2a26.5,26.5,0,0,1,19-7.9m0-1a27.8,27.8,0,0,0-19.7,8.2L10.5,450.1a27.9,27.9,0,1,0,39.4,39.4L489.5,49.9A27.9,27.9,0,0,0,469.8,2.3Z" transform="translate(-2.3 -2.3)"/></svg>