<?xml version="1.0" encoding="utf-8"?>
<!-- Generator: Adobe Illustrator 25.2.1, SVG Export Plug-In . SVG Version: 6.00 Build 0)  -->
<svg version="1.1" id="Ebene_1" xmlns="http://www.w3.org/2000/svg" xmlns:xlink="http://www.w3.org/1999/xlink" x="0px" y="0px"
	 viewBox="0 0 500 500" style="enable-background:new 0 0 500 500;" xml:space="preserve">
<path d="M157.4,217.1h-96c-33.1,0-60-26.9-60-60v-96c0-33.1,26.9-60,60-60h96c33.1,0,60,26.9,60,60v96
	C217.4,190.2,190.5,217.1,157.4,217.1z"/>
<path d="M439,216.7h-96c-33.1,0-60-26.9-60-60v-96c0-33.1,26.9-60,60-60h96c33.1,0,60,26.9,60,60v96
	C499,189.9,472.1,216.7,439,216.7z"/>
<path d="M157,499.2H61c-33.1,0-60-26.9-60-60v-96c0-33.1,26.9-60,60-60h96c33.1,0,60,26.9,60,60v96C217,472.3,190.1,499.2,157,499.2
	z"/>
<path d="M438.6,498.9h-96c-33.1,0-60-26.9-60-60v-96c0-33.1,26.9-60,60-60h96c33.1,0,60,26.9,60,60v96
	C498.6,472,471.7,498.9,438.6,498.9z"/>
</svg>
